<svg xmlns="http://www.w3.org/2000/svg" xmlns:xlink="http://www.w3.org/1999/xlink" width="227" height="201" viewBox="0 0 227 201"><defs><path id="o4o6a" d="M163.81 100.18l-34.18-9.16c-4.21 9.63-7.97 18.5-11.3 26.61 7.23 8.36 18.81 18.86 33.82 26.06zm5.87-21.9c7.53-27.85 27.94-39.72 55.84-32.25l21.9 5.87c21.34 5.72 27.36-14.48 27.77-16.02l21.9 5.87s-1.03 3.1-2.84 7.07c-9.59 21.08-28.76 31.4-52.7 24.99l-21.9-5.87c-15.8-4.24-23.8.47-28.06 16.2L245 98.45c-3.94 40.67-7.3 84.63-20.06 124.09a79.37 79.37 0 0 1-153.29-41.27c.66-2.7 9.33-36.86 41.18-108.33l3.94-8.85zm16.04 27.76l-11.5 43.82c12.88 1.9 26.92 1.47 42.9-5.74 1.17-8.7 2.32-18.27 3.42-28.74zm27.55 63.84c-47.86 15.12-84.35-9.66-104.15-29.04-11.95 31.29-15.49 46.01-15.49 46.01-8.1 30.25 9.8 61.49 40.05 69.6 30.25 8.1 61.44-10.2 69.54-40.45 0 0 4.7-14.05 10.05-46.12z"/></defs><g><g clip-path="url(#clip-CFD185C7-7B99-45B8-9052-EB042B2EB37A)" transform="translate(-71 -35)"><use fill="#79bb43" xlink:href="#o4o6a"/></g></g></svg>