<svg xmlns="http://www.w3.org/2000/svg" xmlns:xlink="http://www.w3.org/1999/xlink" width="25" height="19" viewBox="0 0 25 19"><defs><path id="w23fa" d="M478.91 768.23c.62-.6 1.63-.6 2.25 0 .37.36.52.86.44 1.32a11.18 11.18 0 0 0 2.93 1.42l-.03-2.18.13.06a9.72 9.72 0 0 1 3.01 1.84l.03.03c.67.67.74 1.09.69 1.22-.18.4-2.05.76-4.9-.39-.83-.34-1.6-.76-2.24-1.21l-.07.07c-.62.6-1.62.6-2.25 0a1.51 1.51 0 0 1 .01-2.18zm-7.17 15.22c.75.73 1.97.73 2.72 0l9.3-9.03c.26-.26.47-.57.6-.9.94.26 1.84.39 2.65.39 1.98-.01 2.63-.86 2.85-1.36.22-.5.37-1.55-1.02-2.93l-.05-.04a11.16 11.16 0 0 0-4.32-2.47v-.02c-.01-1.1-.93-2-2.07-2.01l-5.57-.08a2.75 2.75 0 0 0-1.97.78l-9.3 9.03a1.83 1.83 0 0 0 0 2.64z"/></defs><g><g transform="translate(-465 -765)"><use xlink:href="#w23fa"/></g></g></svg>