
<svg width="305px" height="409px" viewBox="0 0 305 409" version="1.1" xmlns="http://www.w3.org/2000/svg" xmlns:xlink="http://www.w3.org/1999/xlink">
  <!-- Generator: Sketch 50.2 (55047) - http://www.bohemiancoding.com/sketch -->
  <desc>Created with Sketch.</desc>
  <defs></defs>
  <g id="Page-1" stroke="none" stroke-width="1" fill="none" fill-rule="evenodd">
    <g id="rubbish" fill="#FFFFFF" fill-rule="nonzero">
      <path d="M35.748,388.784 C36.209,399.794 45.269,408.483 56.287,408.483 L248.198,408.483 C259.216,408.483 268.276,399.794 268.737,388.784 L282.442,99.468 L22.043,99.468 L35.748,388.784 Z M195.655,171.329 C195.655,166.719 199.393,162.98 204.005,162.98 L217.36,162.98 C221.969,162.98 225.71,166.718 225.71,171.329 L225.71,336.622 C225.71,341.233 221.972,344.971 217.36,344.971 L204.005,344.971 C199.395,344.971 195.655,341.235 195.655,336.622 L195.655,171.329 Z M137.216,171.329 C137.216,166.719 140.954,162.98 145.565,162.98 L158.92,162.98 C163.529,162.98 167.269,166.718 167.269,171.329 L167.269,336.622 C167.269,341.233 163.532,344.971 158.92,344.971 L145.565,344.971 C140.955,344.971 137.216,341.235 137.216,336.622 L137.216,171.329 Z M78.775,171.329 C78.775,166.719 82.513,162.98 87.124,162.98 L100.48,162.98 C105.09,162.98 108.829,166.718 108.829,171.329 L108.829,336.622 C108.829,341.233 105.091,344.971 100.48,344.971 L87.124,344.971 C82.514,344.971 78.775,341.235 78.775,336.622 L78.775,171.329 Z" id="Shape"></path>
      <path d="M291.567,21.043 L203.032,21.043 L203.032,4.305 C203.032,1.928 201.105,0 198.727,0 L105.756,0 C103.379,0 101.452,1.928 101.452,4.305 L101.452,21.042 L12.916,21.042 C5.791,21.042 0.016,26.818 0.016,33.943 L0.016,74.47 L304.467,74.47 L304.467,33.944 C304.467,26.819 298.692,21.043 291.567,21.043 Z" id="Shape"></path>
    </g>
  </g>
</svg>
