<svg xmlns="http://www.w3.org/2000/svg" xmlns:xlink="http://www.w3.org/1999/xlink" width="24" height="17" viewBox="0 0 24 17"><defs><path id="shmxa" d="M285 770.7a.27.27 0 0 0-.07-.2l-2.12-2.4a.27.27 0 0 0-.37-.03c-.98.85-1.79 1.86-2.4 3a.27.27 0 0 0 .1.36l2.82 1.54a.27.27 0 0 0 .36-.1c.41-.76.94-1.43 1.59-2a.27.27 0 0 0 .09-.18z"/><path id="shmxb" d="M287.69 769.84a.3.3 0 0 0 .4.13 7.9 7.9 0 0 1 2.66-.86.3.3 0 0 0 .25-.34l-.48-3.51a.3.3 0 0 0-.33-.26 12 12 0 0 0-4.03 1.3.3.3 0 0 0-.13.4z"/><path id="shmxc" d="M282.8 774.88l-3.09-.87a.26.26 0 0 0-.2.03c-.06.03-.1.1-.13.16a11.87 11.87 0 0 0-.37 3.54.27.27 0 0 0 .28.26l3.2-.15c.07 0 .14-.04.19-.1a.28.28 0 0 0 .07-.2 7.88 7.88 0 0 1 .24-2.33.28.28 0 0 0-.19-.34z"/><path id="shmxd" d="M295.83 766.17c-1.3-.63-2.7-1.03-4.15-1.17a.3.3 0 0 0-.33.27l-.35 3.6a.3.3 0 0 0 .27.33c.96.1 1.88.35 2.74.77a.3.3 0 0 0 .4-.14l1.56-3.26a.3.3 0 0 0-.14-.4z"/><path id="shmxe" d="M301 771.16a.27.27 0 0 0-.04-.2 11 11 0 0 0-2.5-2.9.27.27 0 0 0-.38.04l-2.02 2.48a.27.27 0 0 0 .04.37 7.27 7.27 0 0 1 1.66 1.92.27.27 0 0 0 .36.1l2.75-1.65c.06-.04.1-.1.12-.16z"/><path id="shmxf" d="M302.5 773.18a.26.26 0 0 0-.32-.17l-3 .9a.25.25 0 0 0-.17.32 6.6 6.6 0 0 1 .32 2.37c0 .06.02.13.07.18.04.05.1.08.18.08l3.13.14h.02c.14 0 .25-.1.26-.24a9.98 9.98 0 0 0-.48-3.58z"/><path id="shmxg" d="M291.29 776.73h-.15l-4.7-2.69a.3.3 0 0 0-.35.04.28.28 0 0 0-.05.35l2.56 4.66a2.61 2.61 0 0 0 .77 2.14c.52.5 1.2.77 1.92.77s1.4-.27 1.92-.77a2.58 2.58 0 0 0 0-3.73c-.52-.5-1.2-.77-1.92-.77z"/></defs><g><g transform="translate(-279 -765)"><g><use xlink:href="#shmxa"/></g><g><use xlink:href="#shmxb"/></g><g><use xlink:href="#shmxc"/></g><g><use xlink:href="#shmxd"/></g><g><use xlink:href="#shmxe"/></g><g><use xlink:href="#shmxf"/></g><g><use xlink:href="#shmxg"/></g></g></g></svg>